<svg xmlns="http://www.w3.org/2000/svg" width="880" height="116" viewBox="0 0 880 116" role="img" aria-label="Shape it: eight macros · your presets · 6-band eq · stem lanes · a/b · undo">
<title>Shape it: eight macros · your presets · 6-band eq · stem lanes · a/b · undo</title>
<style>.in{animation:in .7s cubic-bezier(.2,0,0,1) both}
@keyframes in{from{opacity:0;transform:translateX(-10px)}to{opacity:1;transform:translateX(0)}}
.ka0{animation:ka0 7s cubic-bezier(.2,0,0,1) infinite}
@keyframes ka0{0%{stroke-dashoffset:62}25%{stroke-dashoffset:30}50%{stroke-dashoffset:48}75%{stroke-dashoffset:22}100%{stroke-dashoffset:62}}
.kn0{transform-origin:644px 53px;transform:rotate(-32.4deg);animation:kn0 7s cubic-bezier(.2,0,0,1) infinite}
@keyframes kn0{0%{transform:rotate(-32.4deg)}25%{transform:rotate(54deg)}50%{transform:rotate(5.4deg)}75%{transform:rotate(75.6deg)}100%{transform:rotate(-32.4deg)}}
.ka1{animation:ka1 7s cubic-bezier(.2,0,0,1) infinite}
@keyframes ka1{0%{stroke-dashoffset:70}25%{stroke-dashoffset:45}50%{stroke-dashoffset:26}75%{stroke-dashoffset:52}100%{stroke-dashoffset:70}}
.kn1{transform-origin:724px 53px;transform:rotate(-54deg);animation:kn1 7s cubic-bezier(.2,0,0,1) infinite}
@keyframes kn1{0%{transform:rotate(-54deg)}25%{transform:rotate(13.5deg)}50%{transform:rotate(64.8deg)}75%{transform:rotate(-5.4deg)}100%{transform:rotate(-54deg)}}
.ka2{animation:ka2 7s cubic-bezier(.2,0,0,1) infinite}
@keyframes ka2{0%{stroke-dashoffset:50}25%{stroke-dashoffset:24}50%{stroke-dashoffset:58}75%{stroke-dashoffset:34}100%{stroke-dashoffset:50}}
.kn2{transform-origin:804px 53px;transform:rotate(0deg);animation:kn2 7s cubic-bezier(.2,0,0,1) infinite}
@keyframes kn2{0%{transform:rotate(0deg)}25%{transform:rotate(70.2deg)}50%{transform:rotate(-21.6deg)}75%{transform:rotate(43.2deg)}100%{transform:rotate(0deg)}}

@media (prefers-reduced-motion: reduce){*{animation:none!important}}</style>
<rect width="880" height="116" fill="#0D0E10"/><rect x=".5" y=".5" width="879" height="115" fill="none" stroke="#26292E"/>
<rect x="28" y="0" width="34" height="3" fill="#FF4D00"/>
<path fill="#FF4D00" d="M31.2 30.1Q30.5 30.1 30 29.9Q29.4 29.6 29.1 29.1Q28.8 28.6 28.6 27.9Q28.5 27.2 28.5 26.3Q28.5 25.4 28.6 24.7Q28.8 24 29.1 23.5Q29.4 23.1 30 22.8Q30.5 22.5 31.2 22.5Q31.8 22.5 32.3 22.8Q32.9 23.1 33.2 23.5Q33.5 24 33.7 24.7Q33.8 25.4 33.8 26.3Q33.8 27.2 33.7 27.9Q33.5 28.6 33.2 29.1Q32.9 29.6 32.3 29.9Q31.8 30.1 31.2 30.1ZM31.2 29.2Q31.9 29.2 32.3 28.6Q32.6 28 32.6 27V25.7Q32.6 24.7 32.3 24.1Q31.9 23.5 31.2 23.5Q30.8 23.5 30.5 23.7Q30.2 23.8 30 24.1Q29.8 24.4 29.7 24.8Q29.7 25.2 29.7 25.7V27Q29.7 27.5 29.7 27.9Q29.8 28.3 30 28.6Q30.2 28.9 30.5 29Q30.8 29.2 31.2 29.2ZM31.2 27Q30.8 27 30.6 26.8Q30.5 26.7 30.5 26.5V26.2Q30.5 26 30.6 25.9Q30.8 25.7 31.2 25.7Q31.5 25.7 31.7 25.9Q31.8 26 31.8 26.2V26.5Q31.8 26.7 31.7 26.8Q31.5 27 31.2 27ZM41.3 30H36.2V28.9L38.6 26.8Q39.2 26.3 39.5 25.8Q39.8 25.4 39.8 24.9V24.8Q39.8 24.2 39.5 23.9Q39.2 23.6 38.6 23.6Q38 23.6 37.6 23.9Q37.3 24.2 37.2 24.7L36.1 24.3Q36.2 24 36.4 23.7Q36.6 23.3 36.9 23.1Q37.3 22.8 37.7 22.7Q38.1 22.5 38.7 22.5Q39.2 22.5 39.7 22.7Q40.1 22.9 40.4 23.2Q40.7 23.4 40.9 23.8Q41 24.2 41 24.7Q41 25.1 40.9 25.5Q40.8 25.9 40.5 26.2Q40.3 26.6 40 26.9Q39.7 27.2 39.3 27.5L37.5 29H41.3Z"/>
<path fill="#878D93" d="M55.6 23.4V30H54.7V23.4H52.3V22.7H58V23.4ZM65.2 26.7H62.3V30H61.5V22.7H62.3V25.9H65.2V22.7H66.1V30H65.2ZM70.2 30V22.7H74.7V23.4H71V25.9H74.6V26.7H71V29.2H74.7V30ZM89.8 30.1Q88.5 30.1 87.8 29.1Q87.2 28.2 87.2 26.3Q87.2 24.5 87.8 23.5Q88.5 22.5 89.8 22.5Q90.3 22.5 90.7 22.7Q91.1 22.8 91.3 23Q91.6 23.3 91.8 23.6Q92 23.9 92.1 24.2L91.3 24.5Q91.2 24.3 91.1 24Q91 23.8 90.8 23.7Q90.6 23.5 90.4 23.4Q90.2 23.3 89.8 23.3Q89 23.3 88.5 24Q88.1 24.6 88.1 25.7V26.9Q88.1 28 88.5 28.7Q89 29.4 89.8 29.4Q90.2 29.4 90.4 29.3Q90.6 29.2 90.8 29Q91 28.8 91.1 28.6Q91.2 28.4 91.3 28.2L92.1 28.5Q92 28.8 91.8 29.1Q91.6 29.4 91.3 29.6Q91.1 29.9 90.7 30Q90.3 30.1 89.8 30.1ZM98.2 30.1Q97.5 30.1 97 29.9Q96.6 29.6 96.2 29.1Q95.9 28.6 95.8 27.9Q95.6 27.2 95.6 26.3Q95.6 25.4 95.8 24.7Q95.9 24 96.2 23.5Q96.6 23.1 97 22.8Q97.5 22.5 98.2 22.5Q98.9 22.5 99.4 22.8Q99.8 23.1 100.2 23.5Q100.5 24 100.6 24.7Q100.8 25.4 100.8 26.3Q100.8 27.2 100.6 27.9Q100.5 28.6 100.2 29.1Q99.8 29.6 99.4 29.9Q98.9 30.1 98.2 30.1ZM98.2 29.4Q98.6 29.4 98.9 29.2Q99.3 29 99.4 28.7Q99.6 28.4 99.7 27.9Q99.8 27.5 99.8 26.9V25.7Q99.8 25.2 99.7 24.7Q99.6 24.3 99.4 24Q99.3 23.7 98.9 23.5Q98.6 23.3 98.2 23.3Q97.8 23.3 97.5 23.5Q97.2 23.7 97 24Q96.8 24.3 96.7 24.7Q96.6 25.2 96.6 25.7V26.9Q96.6 27.5 96.7 27.9Q96.8 28.4 97 28.7Q97.2 29 97.5 29.2Q97.8 29.4 98.2 29.4ZM105.4 23.8H105.3V30H104.5V22.7H105.7L108.2 28.8H108.3V22.7H109.1V30H107.9ZM115.4 30.1Q114.4 30.1 113.8 29.8Q113.2 29.4 112.7 28.8L113.4 28.3Q113.8 28.8 114.3 29.1Q114.8 29.4 115.4 29.4Q116.2 29.4 116.6 29Q117.1 28.6 117.1 28Q117.1 27.4 116.8 27.1Q116.5 26.8 115.7 26.7L114.9 26.6Q114.3 26.5 114 26.3Q113.6 26.1 113.4 25.8Q113.2 25.6 113.1 25.3Q113 24.9 113 24.6Q113 23.6 113.7 23.1Q114.3 22.5 115.4 22.5Q116.3 22.5 116.9 22.8Q117.5 23.1 117.9 23.7L117.3 24.2Q117 23.8 116.5 23.6Q116.1 23.3 115.4 23.3Q114.7 23.3 114.3 23.6Q113.9 23.9 113.9 24.6Q113.9 25.1 114.2 25.4Q114.5 25.7 115.3 25.8L116.1 25.9Q116.6 26 117 26.2Q117.3 26.4 117.5 26.7Q117.8 26.9 117.9 27.3Q118 27.6 118 28Q118 29 117.3 29.5Q116.6 30.1 115.4 30.1ZM124 30.1Q123.4 30.1 122.9 29.9Q122.4 29.6 122.1 29.1Q121.8 28.6 121.6 27.9Q121.5 27.2 121.5 26.3Q121.5 25.4 121.6 24.7Q121.8 24 122.1 23.5Q122.4 23.1 122.9 22.8Q123.4 22.5 124 22.5Q124.7 22.5 125.2 22.8Q125.7 23.1 126 23.5Q126.3 24 126.4 24.7Q126.6 25.4 126.6 26.3Q126.6 27.2 126.4 27.9Q126.3 28.6 126 29.1Q125.7 29.6 125.2 29.9Q124.7 30.1 124 30.1ZM124 29.4Q124.5 29.4 124.8 29.2Q125.1 29 125.3 28.7Q125.5 28.4 125.6 27.9Q125.7 27.5 125.7 26.9V25.7Q125.7 25.2 125.6 24.7Q125.5 24.3 125.3 24Q125.1 23.7 124.8 23.5Q124.5 23.3 124 23.3Q123.6 23.3 123.3 23.5Q123 23.7 122.8 24Q122.6 24.3 122.5 24.7Q122.4 25.2 122.4 25.7V26.9Q122.4 27.5 122.5 27.9Q122.6 28.4 122.8 28.7Q123 29 123.3 29.2Q123.6 29.4 124 29.4ZM130.8 30V22.7H131.6V29.2H135.1V30ZM139 30V22.7H143.6V23.4H139.9V25.9H143.4V26.7H139.9V29.2H143.6V30Z"/>
<g class="in"><path fill="#FBFAF7" d="M43.4 76.4Q40.5 76.4 38 76.1Q35.5 75.7 33.7 74.9Q31.8 74 30.8 72.5Q29.7 71 29.7 68.6Q29.7 68.6 29.7 68.5Q29.7 68.4 29.7 68.2H36.5Q36.5 68.4 36.5 68.5Q36.5 68.7 36.5 68.8Q36.5 69.9 37.2 70.5Q38.1 71.1 39.5 71.3Q40.9 71.5 42.9 71.5Q43.6 71.5 44.5 71.5Q45.3 71.4 46.1 71.3Q46.9 71.2 47.5 71Q48.1 70.7 48.5 70.4Q48.8 70 48.8 69.5Q48.8 68.8 48.1 68.3Q47.3 67.9 46 67.6Q44.6 67.4 43 67.2Q41.3 67 39.6 66.7Q37.8 66.4 36.1 65.9Q34.5 65.4 33.1 64.6Q31.8 63.8 31 62.5Q30.2 61.2 30.2 59.4Q30.2 57.5 31.2 56.2Q32.1 54.8 33.8 53.9Q35.5 53.1 37.8 52.6Q40.1 52.2 42.9 52.2Q45.6 52.2 47.9 52.6Q50.2 53.1 51.8 53.9Q53.4 54.8 54.3 56.1Q55.1 57.4 55.1 59.2V59.7H48.4V59.4Q48.4 58.7 47.8 58.2Q47.2 57.6 46 57.3Q44.9 56.9 43.2 56.9Q41.2 56.9 39.9 57.2Q38.6 57.4 38 57.9Q37.4 58.3 37.4 58.8Q37.4 59.5 38.2 59.9Q38.9 60.3 40.3 60.5Q41.6 60.8 43.3 61Q44.9 61.2 46.7 61.4Q48.5 61.7 50.1 62.2Q51.8 62.7 53.1 63.5Q54.4 64.3 55.2 65.5Q56 66.8 56 68.6Q56 71.4 54.4 73.1Q52.7 74.8 49.9 75.6Q47 76.4 43.4 76.4ZM60 76V51.4H66.3V60.3H66.6Q67.5 59.3 68.6 58.8Q69.8 58.2 71 57.9Q72.3 57.6 73.5 57.6Q76.1 57.6 77.9 58.5Q79.6 59.3 80.5 61Q81.3 62.7 81.3 65.2V76H75.1V66Q75.1 65.1 74.8 64.4Q74.6 63.7 74.1 63.3Q73.6 62.8 72.8 62.6Q72.1 62.3 71.2 62.3Q69.9 62.3 68.7 62.9Q67.6 63.4 67 64.4Q66.3 65.4 66.3 66.7V76ZM93 76.4Q91.3 76.4 89.9 76.2Q88.5 75.9 87.4 75.3Q86.3 74.7 85.7 73.7Q85.1 72.7 85.1 71.1Q85.1 68.9 86.3 67.7Q87.4 66.4 89.6 65.9Q91.7 65.3 94.6 65.2Q97.5 65 101 65V64.5Q101 63.4 100.5 62.8Q100 62.2 99 61.9Q98 61.7 96.5 61.7Q95.4 61.7 94.4 61.8Q93.3 62 92.7 62.3Q92.1 62.7 92.1 63.3V63.6H85.7Q85.7 63.5 85.7 63.4Q85.7 63.3 85.7 63.1Q85.7 61.5 86.9 60.3Q88.2 59 90.7 58.4Q93.1 57.6 96.8 57.6Q100.2 57.6 102.5 58.3Q104.9 58.8 106.1 60.1Q107.3 61.4 107.3 63.7V70.8Q107.3 71.4 107.6 71.8Q107.8 72.2 108.4 72.2H110.2V75.8Q109.7 76 108.7 76.2Q107.6 76.4 106.4 76.4Q104.8 76.4 103.8 76.1Q102.7 75.7 102.3 75.1Q101.7 74.5 101.5 73.8H101.3Q100.3 74.6 99 75.2Q97.8 75.8 96.3 76.1Q94.8 76.4 93 76.4ZM94.8 72.4Q95.6 72.4 96.6 72.3Q97.6 72.1 98.7 71.7Q99.7 71.3 100.4 70.7Q101 70.1 101 69.3V68.2Q97.7 68.2 95.5 68.5Q93.4 68.8 92.4 69.3Q91.3 69.9 91.3 70.8Q91.3 71.5 91.9 71.9Q92.3 72.2 93.1 72.3Q93.9 72.4 94.8 72.4ZM112.8 82.5V58H117.9L118.4 60.9H118.6Q120 59.1 121.8 58.4Q123.6 57.6 125.7 57.6Q128.4 57.6 130.5 58.7Q132.7 59.7 133.9 61.8Q135.1 63.8 135.1 67Q135.1 70.2 133.9 72.3Q132.7 74.4 130.6 75.4Q128.5 76.4 125.9 76.4Q124.7 76.4 123.4 76.1Q122.2 75.9 121.2 75.3Q120.1 74.8 119.3 73.9H119.1V82.5ZM123.9 71.7Q125.5 71.7 126.6 71.2Q127.7 70.6 128.2 69.6Q128.7 68.6 128.7 67.3V66.8Q128.7 65.4 128.2 64.4Q127.7 63.4 126.6 62.9Q125.5 62.3 123.9 62.3Q122.3 62.3 121.2 62.9Q120.1 63.5 119.6 64.5Q119 65.5 119 66.9V67.1Q119 68.1 119.3 69Q119.6 69.8 120.2 70.5Q120.9 71 121.8 71.4Q122.7 71.7 123.9 71.7ZM150.5 76.4Q146.8 76.4 144.1 75.4Q141.4 74.4 139.8 72.3Q138.3 70.3 138.3 67Q138.3 63.9 139.8 61.8Q141.3 59.7 144 58.7Q146.6 57.6 150.2 57.6Q153.9 57.6 156.6 58.7Q159.2 59.7 160.6 61.7Q162 63.8 162 66.8V68.3H144.9Q145 69.7 145.7 70.6Q146.4 71.5 147.6 72Q148.8 72.4 150.5 72.4Q151.5 72.4 152.3 72.2Q153.2 72 153.9 71.7Q154.5 71.3 155 70.8Q155.4 70.3 155.5 69.7H161.9Q161.9 71.2 161.1 72.5Q160.2 73.7 158.7 74.6Q157.2 75.5 155.1 75.9Q153 76.4 150.5 76.4ZM144.9 65H155.3Q155.3 64.2 154.9 63.6Q154.6 63 153.9 62.6Q153.3 62.1 152.4 61.9Q151.5 61.7 150.4 61.7Q148.8 61.7 147.6 62.1Q146.5 62.5 145.8 63.2Q145.1 64 144.9 65ZM176.6 55.6V51.4H182.9V55.6ZM176.6 76V58H182.9V76ZM196.7 76.4Q194.4 76.4 192.9 75.9Q191.4 75.4 190.6 74.1Q189.8 72.9 189.8 70.6V62.3H186.3V58H190.1L191.3 52.7H196.1V58H201.1V62.3H196.1V69.5Q196.1 70.8 196.7 71.4Q197.2 72.2 198.9 72.2H201.1V75.8Q200.7 76 199.8 76.1Q199 76.2 198.1 76.3Q197.3 76.4 196.7 76.4Z"/><path fill="#FF4D00" d="M205.8 76V69.8H213.2V76Z"/></g>
<path fill="#878D93" d="M28.9 98V91.4H32.9V92.1H29.7V94.3H32.8V95H29.7V97.3H32.9V98ZM36 98V97.4H37.7V92H36V91.4H40.1V92H38.5V97.4H40.1V98ZM46.7 97.1H46.6Q46.5 97.3 46.4 97.5Q46.3 97.7 46.1 97.8Q45.9 97.9 45.7 98Q45.5 98.1 45.1 98.1Q44 98.1 43.5 97.2Q43 96.4 43 94.7Q43 93 43.6 92.1Q44.1 91.3 45.3 91.3Q45.8 91.3 46.1 91.4Q46.5 91.5 46.7 91.7Q47 91.9 47.1 92.2Q47.3 92.4 47.4 92.7L46.7 93Q46.6 92.8 46.5 92.6Q46.4 92.4 46.3 92.3Q46.1 92.1 45.9 92Q45.7 91.9 45.4 91.9Q44.6 91.9 44.2 92.5Q43.8 93.1 43.8 94.1V95.2Q43.8 95.7 43.9 96.1Q44 96.5 44.2 96.8Q44.3 97.1 44.6 97.3Q44.9 97.4 45.3 97.4Q45.9 97.4 46.3 97.1Q46.7 96.7 46.7 96V95.4H45.3V94.7H47.4V98H46.7ZM53.8 95H51.2V98H50.4V91.4H51.2V94.3H53.8V91.4H54.6V98H53.8ZM60.1 92.1V98H59.3V92.1H57.1V91.4H62.3V92.1ZM75.6 94.7V92.6H75.6L74.2 96L72.8 92.6H72.7V94.7V98H72V91.4H73L74.2 94.3H74.2L75.4 91.4H76.4V98H75.6ZM83.1 98 82.5 96.1H80.2L79.7 98H78.8L80.9 91.4H81.9L84 98ZM81.4 92.2H81.3L80.4 95.4H82.4ZM88.8 98.1Q87.6 98.1 87 97.2Q86.4 96.3 86.4 94.7Q86.4 93 87 92.1Q87.6 91.3 88.8 91.3Q89.3 91.3 89.6 91.4Q89.9 91.5 90.2 91.7Q90.4 91.9 90.6 92.2Q90.7 92.4 90.9 92.7L90.2 93Q90.1 92.8 90 92.6Q89.9 92.4 89.7 92.3Q89.6 92.1 89.4 92Q89.1 91.9 88.8 91.9Q88 91.9 87.7 92.5Q87.3 93.1 87.3 94.1V95.2Q87.3 96.2 87.7 96.8Q88 97.4 88.8 97.4Q89.1 97.4 89.4 97.3Q89.6 97.2 89.7 97.1Q89.9 97 90 96.8Q90.1 96.6 90.2 96.3L90.9 96.7Q90.7 96.9 90.6 97.2Q90.4 97.4 90.2 97.7Q89.9 97.9 89.6 98Q89.3 98.1 88.8 98.1ZM94.6 98H93.8V91.4H96.2Q97.2 91.4 97.7 91.9Q98.1 92.4 98.1 93.3Q98.1 94.1 97.7 94.6Q97.3 95.1 96.5 95.1L98.2 98H97.3L95.7 95.2H94.6ZM96.2 94.5Q96.7 94.5 97 94.2Q97.3 94 97.3 93.5V93Q97.3 92.6 97 92.3Q96.7 92.1 96.2 92.1H94.6V94.5ZM103.1 98.1Q102.4 98.1 102 97.9Q101.6 97.6 101.3 97.2Q101 96.8 100.9 96.1Q100.7 95.5 100.7 94.7Q100.7 93.9 100.9 93.2Q101 92.6 101.3 92.2Q101.6 91.7 102 91.5Q102.4 91.3 103.1 91.3Q103.7 91.3 104.1 91.5Q104.5 91.7 104.8 92.2Q105.1 92.6 105.2 93.2Q105.4 93.9 105.4 94.7Q105.4 95.5 105.2 96.1Q105.1 96.8 104.8 97.2Q104.5 97.6 104.1 97.9Q103.7 98.1 103.1 98.1ZM103.1 97.4Q103.4 97.4 103.7 97.3Q104 97.1 104.2 96.8Q104.4 96.5 104.4 96.1Q104.5 95.7 104.5 95.2V94.1Q104.5 93.6 104.4 93.2Q104.4 92.8 104.2 92.5Q104 92.3 103.7 92.1Q103.4 91.9 103.1 91.9Q102.7 91.9 102.4 92.1Q102.1 92.3 101.9 92.5Q101.7 92.8 101.7 93.2Q101.6 93.6 101.6 94.1V95.2Q101.6 95.7 101.7 96.1Q101.7 96.5 101.9 96.8Q102.1 97.1 102.4 97.3Q102.7 97.4 103.1 97.4ZM110.3 98.1Q109.4 98.1 108.8 97.8Q108.2 97.5 107.8 96.9L108.4 96.5Q108.8 97 109.2 97.2Q109.7 97.4 110.3 97.4Q111 97.4 111.4 97.1Q111.8 96.8 111.8 96.2Q111.8 95.7 111.5 95.4Q111.2 95.1 110.5 95L109.8 94.9Q109.3 94.8 109 94.6Q108.6 94.5 108.4 94.2Q108.2 94 108.2 93.7Q108.1 93.4 108.1 93.1Q108.1 92.2 108.7 91.7Q109.3 91.3 110.3 91.3Q111.1 91.3 111.6 91.5Q112.2 91.8 112.5 92.3L112 92.8Q111.7 92.4 111.3 92.2Q110.9 91.9 110.3 91.9Q109.6 91.9 109.2 92.2Q108.9 92.5 108.9 93.1Q108.9 93.5 109.1 93.8Q109.4 94.1 110.1 94.2L110.8 94.3Q111.3 94.4 111.7 94.6Q112 94.8 112.2 95Q112.4 95.2 112.5 95.5Q112.6 95.8 112.6 96.1Q112.6 97.1 112 97.6Q111.4 98.1 110.3 98.1ZM124.7 95.8Q124.3 95.8 124.2 95.6Q124 95.4 124 95.2V95Q124 94.8 124.2 94.6Q124.3 94.5 124.7 94.5Q125.1 94.5 125.3 94.6Q125.4 94.8 125.4 95V95.2Q125.4 95.4 125.3 95.6Q125.1 95.8 124.7 95.8ZM138.8 98V95.4L136.5 91.4H137.4L138.3 93.1L139.1 94.6H139.2L140 93.1L140.9 91.4H141.8L139.5 95.4V98ZM146.4 98.1Q145.8 98.1 145.3 97.9Q144.9 97.6 144.6 97.2Q144.3 96.8 144.2 96.1Q144.1 95.5 144.1 94.7Q144.1 93.9 144.2 93.2Q144.3 92.6 144.6 92.2Q144.9 91.7 145.3 91.5Q145.8 91.3 146.4 91.3Q147 91.3 147.4 91.5Q147.9 91.7 148.1 92.2Q148.4 92.6 148.6 93.2Q148.7 93.9 148.7 94.7Q148.7 95.5 148.6 96.1Q148.4 96.8 148.1 97.2Q147.9 97.6 147.4 97.9Q147 98.1 146.4 98.1ZM146.4 97.4Q146.8 97.4 147 97.3Q147.3 97.1 147.5 96.8Q147.7 96.5 147.8 96.1Q147.8 95.7 147.8 95.2V94.1Q147.8 93.6 147.8 93.2Q147.7 92.8 147.5 92.5Q147.3 92.3 147 92.1Q146.8 91.9 146.4 91.9Q146 91.9 145.7 92.1Q145.4 92.3 145.2 92.5Q145.1 92.8 145 93.2Q144.9 93.6 144.9 94.1V95.2Q144.9 95.7 145 96.1Q145.1 96.5 145.2 96.8Q145.4 97.1 145.7 97.3Q146 97.4 146.4 97.4ZM152.3 91.4V95.3Q152.3 95.8 152.3 96.2Q152.4 96.6 152.5 96.9Q152.6 97.1 152.9 97.3Q153.1 97.4 153.6 97.4Q154.1 97.4 154.3 97.3Q154.6 97.1 154.7 96.9Q154.8 96.6 154.9 96.2Q154.9 95.8 154.9 95.3V91.4H155.7V95.2Q155.7 95.9 155.6 96.5Q155.5 97 155.3 97.4Q155.1 97.7 154.7 97.9Q154.3 98.1 153.6 98.1Q152.9 98.1 152.5 97.9Q152.1 97.7 151.9 97.4Q151.6 97 151.6 96.5Q151.5 95.9 151.5 95.2V91.4ZM159.6 98H158.8V91.4H161.2Q162.1 91.4 162.6 91.9Q163.1 92.4 163.1 93.3Q163.1 94.1 162.7 94.6Q162.3 95.1 161.5 95.1L163.2 98H162.3L160.7 95.2H159.6ZM161.2 94.5Q161.7 94.5 162 94.2Q162.3 94 162.3 93.5V93Q162.3 92.6 162 92.3Q161.7 92.1 161.2 92.1H159.6V94.5ZM173.3 98V91.4H175.7Q176.6 91.4 177.1 91.9Q177.6 92.4 177.6 93.3Q177.6 94.2 177.1 94.7Q176.6 95.2 175.7 95.2H174.1V98ZM174.1 94.5H175.6Q176.2 94.5 176.4 94.2Q176.7 94 176.7 93.5V93Q176.7 92.6 176.4 92.3Q176.2 92.1 175.6 92.1H174.1ZM181.3 98H180.5V91.4H182.9Q183.8 91.4 184.3 91.9Q184.8 92.4 184.8 93.3Q184.8 94.1 184.4 94.6Q183.9 95.1 183.1 95.1L184.8 98H183.9L182.3 95.2H181.3ZM182.9 94.5Q183.4 94.5 183.6 94.2Q183.9 94 183.9 93.5V93Q183.9 92.6 183.6 92.3Q183.4 92.1 182.9 92.1H181.3V94.5ZM187.7 98V91.4H191.8V92.1H188.5V94.3H191.7V95H188.5V97.3H191.8V98ZM196.9 98.1Q196 98.1 195.4 97.8Q194.9 97.5 194.5 96.9L195.1 96.5Q195.5 97 195.9 97.2Q196.3 97.4 196.9 97.4Q197.6 97.4 198 97.1Q198.4 96.8 198.4 96.2Q198.4 95.7 198.1 95.4Q197.9 95.1 197.2 95L196.4 94.9Q195.9 94.8 195.6 94.6Q195.3 94.5 195.1 94.2Q194.9 94 194.8 93.7Q194.7 93.4 194.7 93.1Q194.7 92.2 195.3 91.7Q195.9 91.3 196.9 91.3Q197.7 91.3 198.3 91.5Q198.8 91.8 199.2 92.3L198.6 92.8Q198.3 92.4 197.9 92.2Q197.5 91.9 196.9 91.9Q196.2 91.9 195.9 92.2Q195.5 92.5 195.5 93.1Q195.5 93.5 195.8 93.8Q196.1 94.1 196.8 94.2L197.5 94.3Q198 94.4 198.3 94.6Q198.6 94.8 198.8 95Q199 95.2 199.1 95.5Q199.2 95.8 199.2 96.1Q199.2 97.1 198.6 97.6Q198 98.1 196.9 98.1ZM202.1 98V91.4H206.2V92.1H202.9V94.3H206.1V95H202.9V97.3H206.2V98ZM211.7 92.1V98H211V92.1H208.7V91.4H214V92.1ZM218.6 98.1Q217.7 98.1 217.1 97.8Q216.5 97.5 216.1 96.9L216.7 96.5Q217.1 97 217.5 97.2Q218 97.4 218.6 97.4Q219.3 97.4 219.7 97.1Q220.1 96.8 220.1 96.2Q220.1 95.7 219.8 95.4Q219.5 95.1 218.8 95L218.1 94.9Q217.6 94.8 217.3 94.6Q216.9 94.5 216.7 94.2Q216.5 94 216.5 93.7Q216.4 93.4 216.4 93.1Q216.4 92.2 217 91.7Q217.6 91.3 218.6 91.3Q219.4 91.3 219.9 91.5Q220.5 91.8 220.8 92.3L220.3 92.8Q220 92.4 219.6 92.2Q219.2 91.9 218.6 91.9Q217.9 91.9 217.5 92.2Q217.2 92.5 217.2 93.1Q217.2 93.5 217.4 93.8Q217.7 94.1 218.4 94.2L219.1 94.3Q219.6 94.4 220 94.6Q220.3 94.8 220.5 95Q220.7 95.2 220.8 95.5Q220.9 95.8 220.9 96.1Q220.9 97.1 220.3 97.6Q219.7 98.1 218.6 98.1ZM233 95.8Q232.6 95.8 232.5 95.6Q232.3 95.4 232.3 95.2V95Q232.3 94.8 232.5 94.6Q232.6 94.5 233 94.5Q233.4 94.5 233.6 94.6Q233.7 94.8 233.7 95V95.2Q233.7 95.4 233.6 95.6Q233.4 95.8 233 95.8ZM247.5 98.1Q246.9 98.1 246.5 97.9Q246.1 97.8 245.8 97.4Q245.5 97.1 245.4 96.6Q245.2 96.2 245.2 95.6Q245.2 94.8 245.4 94.2Q245.7 93.5 246 93Q246.3 92.5 246.8 92Q247.2 91.6 247.6 91.4H248.6Q248.1 91.8 247.7 92.1Q247.3 92.5 246.9 92.9Q246.6 93.3 246.4 93.8Q246.2 94.2 246 94.8L246.1 94.8Q246.3 94.4 246.7 94.1Q247.1 93.9 247.7 93.9Q248.1 93.9 248.5 94Q248.9 94.2 249.1 94.4Q249.4 94.7 249.5 95.1Q249.7 95.5 249.7 95.9Q249.7 96.4 249.5 96.8Q249.4 97.2 249.1 97.5Q248.8 97.8 248.4 98Q248 98.1 247.5 98.1ZM247.5 97.4Q248.1 97.4 248.5 97.1Q248.9 96.7 248.9 96V95.9Q248.9 95.3 248.5 94.9Q248.1 94.5 247.5 94.5Q246.8 94.5 246.4 94.9Q246 95.3 246 95.9V96Q246 96.7 246.4 97.1Q246.8 97.4 247.5 97.4ZM253.3 95.5V94.7H256V95.5ZM259.9 91.4H262.1Q263 91.4 263.5 91.8Q264 92.3 264 93.1Q264 93.7 263.7 94Q263.4 94.4 262.9 94.5V94.5Q263.5 94.7 263.8 95Q264.2 95.4 264.2 96.1Q264.2 96.5 264.1 96.8Q263.9 97.2 263.7 97.4Q263.4 97.7 263.1 97.8Q262.8 98 262.4 98H259.9ZM262.2 97.3Q262.7 97.3 263 97.1Q263.4 96.8 263.4 96.3V95.9Q263.4 95.4 263 95.2Q262.7 94.9 262.2 94.9H260.7V97.3ZM262 94.2Q262.5 94.2 262.8 94Q263.1 93.8 263.1 93.3V93Q263.1 92.5 262.8 92.3Q262.5 92.1 262 92.1H260.7V94.2ZM270.8 98 270.3 96.1H267.9L267.4 98H266.6L268.6 91.4H269.6L271.7 98ZM269.1 92.2H269.1L268.1 95.4H270.1ZM275 92.4H275V98H274.2V91.4H275.4L277.6 97H277.7V91.4H278.4V98H277.3ZM281.6 91.4H283.5Q284.7 91.4 285.3 92.2Q285.9 93 285.9 94.7Q285.9 96.3 285.3 97.2Q284.7 98 283.5 98H281.6ZM283.4 97.3Q284.2 97.3 284.6 96.8Q285 96.2 285 95.2V94.2Q285 93.2 284.6 92.6Q284.2 92.1 283.4 92.1H282.4V97.3ZM296 98V91.4H300.1V92.1H296.8V94.3H300V95H296.8V97.3H300.1V98ZM307 99.6H305.9Q305.4 99.6 305.1 99.2Q304.8 98.9 304.8 98.4V98.1Q304.3 98 304 97.8Q303.6 97.5 303.4 97.1Q303.1 96.6 303 96Q302.9 95.4 302.9 94.7Q302.9 93.9 303 93.2Q303.2 92.6 303.4 92.2Q303.7 91.7 304.2 91.5Q304.6 91.3 305.2 91.3Q305.8 91.3 306.3 91.5Q306.7 91.7 307 92.2Q307.3 92.6 307.4 93.2Q307.5 93.9 307.5 94.7Q307.5 96.2 307.1 97.1Q306.6 98 305.6 98.1V98.9H307ZM305.2 97.4Q305.6 97.4 305.9 97.3Q306.2 97.1 306.3 96.8Q306.5 96.5 306.6 96.1Q306.7 95.7 306.7 95.2V94.1Q306.7 93.6 306.6 93.2Q306.5 92.8 306.3 92.5Q306.2 92.3 305.9 92.1Q305.6 91.9 305.2 91.9Q304.8 91.9 304.5 92.1Q304.3 92.3 304.1 92.5Q303.9 92.8 303.8 93.2Q303.7 93.6 303.7 94.1V95.2Q303.7 95.7 303.8 96.1Q303.9 96.5 304.1 96.8Q304.3 97.1 304.5 97.3Q304.8 97.4 305.2 97.4ZM319.7 95.8Q319.3 95.8 319.1 95.6Q318.9 95.4 318.9 95.2V95Q318.9 94.8 319.1 94.6Q319.3 94.5 319.7 94.5Q320 94.5 320.2 94.6Q320.4 94.8 320.4 95V95.2Q320.4 95.4 320.2 95.6Q320 95.8 319.7 95.8ZM334.1 98.1Q333.2 98.1 332.6 97.8Q332 97.5 331.7 96.9L332.2 96.5Q332.6 97 333.1 97.2Q333.5 97.4 334.1 97.4Q334.8 97.4 335.2 97.1Q335.6 96.8 335.6 96.2Q335.6 95.7 335.3 95.4Q335 95.1 334.3 95L333.6 94.9Q333.1 94.8 332.8 94.6Q332.5 94.5 332.3 94.2Q332.1 94 332 93.7Q331.9 93.4 331.9 93.1Q331.9 92.2 332.5 91.7Q333.1 91.3 334.1 91.3Q334.9 91.3 335.5 91.5Q336 91.8 336.3 92.3L335.8 92.8Q335.5 92.4 335.1 92.2Q334.7 91.9 334.1 91.9Q333.4 91.9 333.1 92.2Q332.7 92.5 332.7 93.1Q332.7 93.5 333 93.8Q333.2 94.1 333.9 94.2L334.7 94.3Q335.1 94.4 335.5 94.6Q335.8 94.8 336 95Q336.2 95.2 336.3 95.5Q336.4 95.8 336.4 96.1Q336.4 97.1 335.8 97.6Q335.2 98.1 334.1 98.1ZM341.7 92.1V98H340.9V92.1H338.7V91.4H343.9V92.1ZM346.5 98V91.4H350.6V92.1H347.3V94.3H350.5V95H347.3V97.3H350.6V98ZM357.2 94.7V92.6H357.1L355.8 96L354.4 92.6H354.3V94.7V98H353.5V91.4H354.6L355.7 94.3H355.8L357 91.4H358V98H357.2ZM368.5 98V91.4H369.3V97.3H372.4V98ZM379.1 98 378.6 96.1H376.2L375.7 98H374.9L376.9 91.4H377.9L380 98ZM377.4 92.2H377.4L376.4 95.4H378.4ZM383.3 92.4H383.3V98H382.5V91.4H383.7L385.9 97H386V91.4H386.7V98H385.6ZM389.9 98V91.4H393.9V92.1H390.7V94.3H393.8V95H390.7V97.3H393.9V98ZM399.1 98.1Q398.2 98.1 397.6 97.8Q397 97.5 396.6 96.9L397.2 96.5Q397.6 97 398 97.2Q398.5 97.4 399.1 97.4Q399.8 97.4 400.2 97.1Q400.6 96.8 400.6 96.2Q400.6 95.7 400.3 95.4Q400 95.1 399.3 95L398.6 94.9Q398.1 94.8 397.8 94.6Q397.4 94.5 397.2 94.2Q397 94 397 93.7Q396.9 93.4 396.9 93.1Q396.9 92.2 397.5 91.7Q398.1 91.3 399.1 91.3Q399.9 91.3 400.4 91.5Q401 91.8 401.3 92.3L400.8 92.8Q400.5 92.4 400.1 92.2Q399.7 91.9 399.1 91.9Q398.4 91.9 398 92.2Q397.7 92.5 397.7 93.1Q397.7 93.5 397.9 93.8Q398.2 94.1 398.9 94.2L399.6 94.3Q400.1 94.4 400.5 94.6Q400.8 94.8 401 95Q401.2 95.2 401.3 95.5Q401.4 95.8 401.4 96.1Q401.4 97.1 400.8 97.6Q400.2 98.1 399.1 98.1ZM413.5 95.8Q413.1 95.8 413 95.6Q412.8 95.4 412.8 95.2V95Q412.8 94.8 413 94.6Q413.1 94.5 413.5 94.5Q413.9 94.5 414.1 94.6Q414.2 94.8 414.2 95V95.2Q414.2 95.4 414.1 95.6Q413.9 95.8 413.5 95.8ZM429.7 98 429.1 96.1H426.8L426.2 98H425.4L427.4 91.4H428.5L430.5 98ZM428 92.2H427.9L427 95.4H428.9ZM433.2 99.3 436.5 90.8H437.2L433.9 99.3ZM440.4 91.4H442.6Q443.5 91.4 444 91.8Q444.5 92.3 444.5 93.1Q444.5 93.7 444.2 94Q443.9 94.4 443.4 94.5V94.5Q444 94.7 444.3 95Q444.7 95.4 444.7 96.1Q444.7 96.5 444.6 96.8Q444.4 97.2 444.2 97.4Q443.9 97.7 443.6 97.8Q443.3 98 442.9 98H440.4ZM442.7 97.3Q443.2 97.3 443.5 97.1Q443.9 96.8 443.9 96.3V95.9Q443.9 95.4 443.5 95.2Q443.2 94.9 442.7 94.9H441.2V97.3ZM442.5 94.2Q443 94.2 443.3 94Q443.6 93.8 443.6 93.3V93Q443.6 92.5 443.3 92.3Q443 92.1 442.5 92.1H441.2V94.2ZM456.8 95.8Q456.4 95.8 456.3 95.6Q456.1 95.4 456.1 95.2V95Q456.1 94.8 456.3 94.6Q456.4 94.5 456.8 94.5Q457.2 94.5 457.4 94.6Q457.5 94.8 457.5 95V95.2Q457.5 95.4 457.4 95.6Q457.2 95.8 456.8 95.8ZM470 91.4V95.3Q470 95.8 470 96.2Q470 96.6 470.2 96.9Q470.3 97.1 470.5 97.3Q470.8 97.4 471.3 97.4Q471.7 97.4 472 97.3Q472.3 97.1 472.4 96.9Q472.5 96.6 472.5 96.2Q472.6 95.8 472.6 95.3V91.4H473.4V95.2Q473.4 95.9 473.3 96.5Q473.2 97 473 97.4Q472.8 97.7 472.4 97.9Q471.9 98.1 471.3 98.1Q470.6 98.1 470.2 97.9Q469.8 97.7 469.5 97.4Q469.3 97 469.3 96.5Q469.2 95.9 469.2 95.2V91.4ZM477.2 92.4H477.1V98H476.4V91.4H477.5L479.8 97H479.9V91.4H480.6V98H479.4ZM483.8 91.4H485.6Q486.8 91.4 487.4 92.2Q488 93 488 94.7Q488 96.3 487.4 97.2Q486.8 98 485.6 98H483.8ZM485.6 97.3Q486.4 97.3 486.8 96.8Q487.2 96.2 487.2 95.2V94.2Q487.2 93.2 486.8 92.6Q486.4 92.1 485.6 92.1H484.6V97.3ZM492.9 98.1Q492.3 98.1 491.9 97.9Q491.4 97.6 491.2 97.2Q490.9 96.8 490.7 96.1Q490.6 95.5 490.6 94.7Q490.6 93.9 490.7 93.2Q490.9 92.6 491.2 92.2Q491.4 91.7 491.9 91.5Q492.3 91.3 492.9 91.3Q493.5 91.3 494 91.5Q494.4 91.7 494.7 92.2Q495 92.6 495.1 93.2Q495.2 93.9 495.2 94.7Q495.2 95.5 495.1 96.1Q495 96.8 494.7 97.2Q494.4 97.6 494 97.9Q493.5 98.1 492.9 98.1ZM492.9 97.4Q493.3 97.4 493.6 97.3Q493.9 97.1 494.1 96.8Q494.2 96.5 494.3 96.1Q494.4 95.7 494.4 95.2V94.1Q494.4 93.6 494.3 93.2Q494.2 92.8 494.1 92.5Q493.9 92.3 493.6 92.1Q493.3 91.9 492.9 91.9Q492.5 91.9 492.3 92.1Q492 92.3 491.8 92.5Q491.6 92.8 491.5 93.2Q491.5 93.6 491.5 94.1V95.2Q491.5 95.7 491.5 96.1Q491.6 96.5 491.8 96.8Q492 97.1 492.3 97.3Q492.5 97.4 492.9 97.4Z"/>
<clipPath id="well-console"><rect x="596" y="22" width="256" height="72"/></clipPath>
<rect x="596" y="22" width="256" height="72" fill="#0A0B0D" stroke="#26292E"/>
<g clip-path="url(#well-console)"><path d="M632 65A17 17 0 1 1 656 65" pathLength="100" fill="none" stroke="#33373C" stroke-width="3"/>
<path class="ka0" d="M632 65A17 17 0 1 1 656 65" pathLength="100" fill="none" stroke="#FF4D00" stroke-width="3" stroke-dasharray="100 100" stroke-dashoffset="62"/>
<circle cx="644" cy="53" r="10" fill="#17191C" stroke="#26292E"/>
<rect class="kn0" x="643" y="41" width="2" height="12" fill="#FF4D00"/>
<rect x="641.5" y="50.5" width="5" height="5" fill="#FF4D00"/>
<path fill="#878D93" d="M636.5 78.6V83H635.9V78.6H634.3V78.1H638.2V78.6ZM641.4 83.1Q641 83.1 640.6 82.9Q640.3 82.7 640.1 82.4Q639.9 82.1 639.8 81.6Q639.7 81.2 639.7 80.6Q639.7 80 639.8 79.5Q639.9 79 640.1 78.7Q640.3 78.4 640.6 78.2Q641 78 641.4 78Q641.9 78 642.2 78.2Q642.5 78.4 642.7 78.7Q642.9 79 643 79.5Q643.1 80 643.1 80.6Q643.1 81.2 643 81.6Q642.9 82.1 642.7 82.4Q642.5 82.7 642.2 82.9Q641.9 83.1 641.4 83.1ZM641.4 82.6Q641.7 82.6 641.9 82.5Q642.1 82.3 642.2 82.1Q642.4 81.9 642.4 81.6Q642.5 81.3 642.5 81V80.2Q642.5 79.8 642.4 79.5Q642.4 79.2 642.2 79Q642.1 78.8 641.9 78.7Q641.7 78.5 641.4 78.5Q641.1 78.5 640.9 78.7Q640.7 78.8 640.6 79Q640.4 79.2 640.4 79.5Q640.3 79.8 640.3 80.2V81Q640.3 81.3 640.4 81.6Q640.4 81.9 640.6 82.1Q640.7 82.3 640.9 82.5Q641.1 82.6 641.4 82.6ZM645.6 78.9H645.6V83H645.1V78.1H645.9L647.5 82.2H647.6V78.1H648.1V83H647.3ZM650.3 83V78.1H653.3V78.6H650.9V80.3H653.2V80.8H650.9V82.5H653.3V83Z"/><path d="M712 65A17 17 0 1 1 736 65" pathLength="100" fill="none" stroke="#33373C" stroke-width="3"/>
<path class="ka1" d="M712 65A17 17 0 1 1 736 65" pathLength="100" fill="none" stroke="#FF4D00" stroke-width="3" stroke-dasharray="100 100" stroke-dashoffset="70"/>
<circle cx="724" cy="53" r="10" fill="#17191C" stroke="#26292E"/>
<rect class="kn1" x="723" y="41" width="2" height="12" fill="#FF4D00"/>
<rect x="721.5" y="50.5" width="5" height="5" fill="#FF4D00"/>
<path fill="#878D93" d="M707 78.1H708.4Q709.3 78.1 709.7 78.7Q710.2 79.3 710.2 80.6Q710.2 81.8 709.7 82.4Q709.3 83 708.4 83H707ZM708.4 82.5Q709 82.5 709.2 82.1Q709.5 81.7 709.5 80.9V80.2Q709.5 79.4 709.2 79Q709 78.6 708.4 78.6H707.6V82.5ZM712.2 83V78.1H715.2V78.6H712.8V80.3H715.1V80.8H712.8V82.5H715.2V83ZM717.9 78.9H717.8V83H717.3V78.1H718.1L719.8 82.2H719.8V78.1H720.4V83H719.5ZM724 83.1Q723.3 83.1 722.9 82.8Q722.5 82.6 722.2 82.2L722.6 81.9Q722.9 82.2 723.2 82.4Q723.6 82.6 724 82.6Q724.5 82.6 724.8 82.3Q725.1 82.1 725.1 81.6Q725.1 81.3 724.9 81.1Q724.7 80.9 724.2 80.8L723.6 80.7Q723.3 80.7 723 80.5Q722.8 80.4 722.7 80.2Q722.5 80 722.4 79.8Q722.4 79.6 722.4 79.4Q722.4 78.7 722.8 78.4Q723.3 78 724 78Q724.6 78 725 78.2Q725.4 78.4 725.7 78.8L725.2 79.1Q725 78.9 724.7 78.7Q724.5 78.5 724 78.5Q723.5 78.5 723.2 78.7Q723 79 723 79.4Q723 79.7 723.2 79.9Q723.4 80.1 723.9 80.2L724.4 80.3Q724.8 80.4 725 80.5Q725.3 80.6 725.4 80.8Q725.6 81 725.6 81.2Q725.7 81.4 725.7 81.6Q725.7 82.3 725.2 82.7Q724.8 83.1 724 83.1ZM727.7 83V82.5H728.9V78.6H727.7V78.1H730.7V78.6H729.5V82.5H730.7V83ZM734.7 78.6V83H734.1V78.6H732.4V78.1H736.3V78.6ZM739.2 83V81.1L737.6 78.1H738.2L738.9 79.4L739.5 80.5H739.6L740.2 79.4L740.9 78.1H741.5L739.8 81.1V83Z"/><path d="M792 65A17 17 0 1 1 816 65" pathLength="100" fill="none" stroke="#33373C" stroke-width="3"/>
<path class="ka2" d="M792 65A17 17 0 1 1 816 65" pathLength="100" fill="none" stroke="#FF4D00" stroke-width="3" stroke-dasharray="100 100" stroke-dashoffset="50"/>
<circle cx="804" cy="53" r="10" fill="#17191C" stroke="#26292E"/>
<rect class="kn2" x="803" y="41" width="2" height="12" fill="#FF4D00"/>
<rect x="801.5" y="50.5" width="5" height="5" fill="#FF4D00"/>
<path fill="#878D93" d="M792.2 83 791.8 78.1H792.3L792.5 80.9L792.6 82.4H792.7L793.3 79.4H794L794.6 82.4H794.7L794.8 80.9L795 78.1H795.5L795.1 83H794.3L793.7 80.1H793.6L793 83ZM797.3 83V82.5H798.5V78.6H797.3V78.1H800.3V78.6H799.1V82.5H800.3V83ZM802.6 78.1H803.9Q804.8 78.1 805.3 78.7Q805.7 79.3 805.7 80.6Q805.7 81.8 805.3 82.4Q804.8 83 803.9 83H802.6ZM803.9 82.5Q804.5 82.5 804.8 82.1Q805.1 81.7 805.1 80.9V80.2Q805.1 79.4 804.8 79Q804.5 78.6 803.9 78.6H803.2V82.5ZM809.5 78.6V83H808.9V78.6H807.3V78.1H811.1V78.6ZM815.3 80.8H813.4V83H812.8V78.1H813.4V80.3H815.3V78.1H815.9V83H815.3Z"/></g>
<path fill="#63696F" d="M596.7 106V100.8H600V101.3H597.3V103.1H599.8V103.6H597.3V106ZM602.6 106V105.5H603.9V101.3H602.6V100.8H605.9V101.3H604.6V105.5H605.9V106ZM611.3 105.3H611.3Q611.2 105.5 611.1 105.6Q611 105.7 610.9 105.9Q610.8 106 610.6 106Q610.4 106.1 610.1 106.1Q609.3 106.1 608.8 105.4Q608.4 104.7 608.4 103.4Q608.4 102.1 608.9 101.4Q609.3 100.7 610.3 100.7Q610.7 100.7 610.9 100.8Q611.2 100.9 611.4 101Q611.6 101.2 611.7 101.4Q611.8 101.6 611.9 101.8L611.4 102.1Q611.3 101.9 611.2 101.7Q611.1 101.6 611 101.5Q610.9 101.4 610.7 101.3Q610.5 101.2 610.3 101.2Q609.7 101.2 609.4 101.7Q609.1 102.2 609.1 103V103.8Q609.1 104.2 609.1 104.5Q609.2 104.8 609.4 105.1Q609.5 105.3 609.7 105.4Q609.9 105.6 610.3 105.6Q610.8 105.6 611 105.3Q611.3 104.9 611.3 104.5V103.9H610.2V103.4H611.9V106H611.3ZM616.3 106.1Q615.9 106.1 615.8 105.9Q615.7 105.8 615.7 105.6V105.5Q615.7 105.3 615.8 105.2Q615.9 105 616.3 105Q616.6 105 616.7 105.2Q616.8 105.3 616.8 105.5V105.6Q616.8 105.8 616.7 105.9Q616.6 106.1 616.3 106.1ZM628.3 106.1Q627.8 106.1 627.4 105.9Q627.1 105.7 626.9 105.4Q626.6 105 626.5 104.5Q626.4 104 626.4 103.4Q626.4 102.7 626.5 102.2Q626.6 101.7 626.9 101.4Q627.1 101 627.4 100.9Q627.8 100.7 628.3 100.7Q628.7 100.7 629.1 100.9Q629.4 101 629.6 101.4Q629.9 101.7 630 102.2Q630.1 102.7 630.1 103.4Q630.1 104 630 104.5Q629.9 105 629.6 105.4Q629.4 105.7 629.1 105.9Q628.7 106.1 628.3 106.1ZM628.3 105.5Q628.6 105.5 628.8 105.4Q629 105.3 629.2 105.1Q629.3 104.8 629.4 104.5Q629.4 104.2 629.4 103.8V103Q629.4 102.6 629.4 102.2Q629.3 101.9 629.2 101.7Q629 101.5 628.8 101.4Q628.6 101.2 628.3 101.2Q627.9 101.2 627.7 101.4Q627.5 101.5 627.4 101.7Q627.2 101.9 627.1 102.2Q627.1 102.6 627.1 103V103.8Q627.1 104.2 627.1 104.5Q627.2 104.8 627.4 105.1Q627.5 105.3 627.7 105.4Q627.9 105.5 628.3 105.5ZM628.3 103.8Q628 103.8 627.9 103.7Q627.8 103.6 627.8 103.5V103.3Q627.8 103.2 627.9 103Q628 102.9 628.3 102.9Q628.5 102.9 628.6 103Q628.7 103.2 628.7 103.3V103.5Q628.7 103.6 628.6 103.7Q628.5 103.8 628.3 103.8ZM636 106H632.5V105.4L634.3 103.8Q634.7 103.4 634.9 103.1Q635.2 102.7 635.2 102.3V102.2Q635.2 101.7 634.9 101.5Q634.7 101.2 634.2 101.2Q633.7 101.2 633.4 101.5Q633.2 101.7 633.1 102.1L632.5 101.9Q632.6 101.7 632.7 101.5Q632.8 101.2 633 101.1Q633.2 100.9 633.5 100.8Q633.8 100.7 634.2 100.7Q634.6 100.7 634.9 100.8Q635.2 100.9 635.4 101.1Q635.6 101.3 635.7 101.6Q635.8 101.9 635.8 102.2Q635.8 102.5 635.7 102.8Q635.6 103 635.5 103.3Q635.3 103.5 635.1 103.7Q634.9 104 634.6 104.2L633.2 105.5H636Z"/>
<path fill="#63696F" d="M692.2 106V100.8H695.4V101.3H692.8V103.1H695.3V103.6H692.8V105.5H695.4V106ZM698.1 106V105.5H699.4V101.3H698.1V100.8H701.4V101.3H700.1V105.5H701.4V106ZM706.8 105.3H706.8Q706.7 105.5 706.6 105.6Q706.5 105.7 706.4 105.9Q706.3 106 706.1 106Q705.9 106.1 705.6 106.1Q704.8 106.1 704.3 105.4Q703.9 104.7 703.9 103.4Q703.9 102.1 704.4 101.4Q704.8 100.7 705.8 100.7Q706.2 100.7 706.4 100.8Q706.7 100.9 706.9 101Q707.1 101.2 707.2 101.4Q707.3 101.6 707.4 101.8L706.9 102.1Q706.8 101.9 706.7 101.7Q706.6 101.6 706.5 101.5Q706.4 101.4 706.2 101.3Q706 101.2 705.8 101.2Q705.2 101.2 704.9 101.7Q704.6 102.2 704.6 103V103.8Q704.6 104.2 704.6 104.5Q704.7 104.8 704.9 105.1Q705 105.3 705.2 105.4Q705.4 105.6 705.8 105.6Q706.3 105.6 706.5 105.3Q706.8 104.9 706.8 104.5V103.9H705.7V103.4H707.4V106H706.8ZM712.8 103.6H710.7V106H710.1V100.8H710.7V103.1H712.8V100.8H713.4V106H712.8ZM718.1 101.3V106H717.4V101.3H715.7V100.8H719.8V101.3ZM730.9 103.4V101.7H730.9L729.8 104.4L728.6 101.7H728.6V103.4V106H728V100.8H728.8L729.7 103.1H729.8L730.7 100.8H731.5V106H730.9ZM737.1 106 736.7 104.5H734.8L734.4 106H733.7L735.3 100.8H736.2L737.8 106ZM735.8 101.4H735.7L735 104H736.5ZM741.9 106.1Q741 106.1 740.5 105.4Q740 104.7 740 103.4Q740 102.1 740.5 101.4Q741 100.7 741.9 100.7Q742.3 100.7 742.5 100.8Q742.8 100.9 743 101Q743.2 101.2 743.3 101.4Q743.4 101.6 743.5 101.8L743 102.1Q742.9 101.9 742.8 101.7Q742.7 101.6 742.6 101.5Q742.5 101.4 742.3 101.3Q742.2 101.2 741.9 101.2Q741.3 101.2 741 101.7Q740.7 102.2 740.7 103V103.8Q740.7 104.6 741 105.1Q741.3 105.5 741.9 105.5Q742.2 105.5 742.3 105.5Q742.5 105.4 742.6 105.3Q742.7 105.2 742.8 105Q742.9 104.9 743 104.7L743.5 104.9Q743.4 105.2 743.3 105.4Q743.2 105.6 743 105.7Q742.8 105.9 742.5 106Q742.3 106.1 741.9 106.1ZM746.8 106H746.2V100.8H748.1Q748.8 100.8 749.2 101.2Q749.6 101.6 749.6 102.3Q749.6 102.9 749.2 103.3Q748.9 103.7 748.3 103.7L749.6 106H748.9L747.6 103.8H746.8ZM748.1 103.2Q748.5 103.2 748.7 103Q748.9 102.8 748.9 102.5V102.1Q748.9 101.7 748.7 101.5Q748.5 101.3 748.1 101.3H746.8V103.2ZM753.8 106.1Q753.3 106.1 752.9 105.9Q752.6 105.7 752.4 105.4Q752.1 105 752 104.5Q751.9 104 751.9 103.4Q751.9 102.7 752 102.2Q752.1 101.7 752.4 101.4Q752.6 101 752.9 100.9Q753.3 100.7 753.8 100.7Q754.2 100.7 754.6 100.9Q754.9 101 755.1 101.4Q755.4 101.7 755.5 102.2Q755.6 102.7 755.6 103.4Q755.6 104 755.5 104.5Q755.4 105 755.1 105.4Q754.9 105.7 754.6 105.9Q754.2 106.1 753.8 106.1ZM753.8 105.5Q754.1 105.5 754.3 105.4Q754.5 105.3 754.6 105.1Q754.8 104.8 754.8 104.5Q754.9 104.2 754.9 103.8V103Q754.9 102.6 754.8 102.2Q754.8 101.9 754.6 101.7Q754.5 101.5 754.3 101.4Q754.1 101.2 753.8 101.2Q753.4 101.2 753.2 101.4Q753 101.5 752.9 101.7Q752.7 101.9 752.7 102.2Q752.6 102.6 752.6 103V103.8Q752.6 104.2 752.7 104.5Q752.7 104.8 752.9 105.1Q753 105.3 753.2 105.4Q753.4 105.5 753.8 105.5ZM759.7 106.1Q759 106.1 758.6 105.8Q758.1 105.6 757.8 105.2L758.3 104.8Q758.6 105.2 758.9 105.4Q759.3 105.6 759.8 105.6Q760.3 105.6 760.6 105.3Q760.9 105 760.9 104.6Q760.9 104.2 760.7 104Q760.5 103.7 760 103.7L759.4 103.6Q759 103.5 758.7 103.4Q758.5 103.2 758.3 103Q758.2 102.8 758.1 102.6Q758 102.4 758 102.1Q758 101.4 758.5 101Q759 100.7 759.8 100.7Q760.4 100.7 760.8 100.9Q761.3 101.1 761.5 101.5L761.1 101.9Q760.9 101.6 760.6 101.4Q760.2 101.2 759.8 101.2Q759.2 101.2 758.9 101.4Q758.7 101.7 758.7 102.1Q758.7 102.5 758.9 102.7Q759.1 102.9 759.6 103L760.2 103.1Q760.6 103.2 760.8 103.3Q761.1 103.4 761.3 103.6Q761.4 103.8 761.5 104.1Q761.6 104.3 761.6 104.5Q761.6 105.3 761.1 105.7Q760.6 106.1 759.7 106.1ZM771.8 104.2Q771.4 104.2 771.3 104.1Q771.2 104 771.2 103.8V103.7Q771.2 103.5 771.3 103.3Q771.4 103.2 771.8 103.2Q772.1 103.2 772.2 103.3Q772.3 103.5 772.3 103.7V103.8Q772.3 104 772.2 104.1Q772.1 104.2 771.8 104.2ZM783.4 106V103.9L781.6 100.8H782.3L783.1 102.1L783.7 103.3H783.8L784.4 102.1L785.2 100.8H785.9L784.1 103.9V106ZM789.8 106.1Q789.3 106.1 788.9 105.9Q788.6 105.7 788.4 105.4Q788.1 105 788 104.5Q787.9 104 787.9 103.4Q787.9 102.7 788 102.2Q788.1 101.7 788.4 101.4Q788.6 101 788.9 100.9Q789.3 100.7 789.8 100.7Q790.2 100.7 790.6 100.9Q790.9 101 791.1 101.4Q791.4 101.7 791.5 102.2Q791.6 102.7 791.6 103.4Q791.6 104 791.5 104.5Q791.4 105 791.1 105.4Q790.9 105.7 790.6 105.9Q790.2 106.1 789.8 106.1ZM789.8 105.5Q790.1 105.5 790.3 105.4Q790.5 105.3 790.6 105.1Q790.8 104.8 790.8 104.5Q790.9 104.2 790.9 103.8V103Q790.9 102.6 790.8 102.2Q790.8 101.9 790.6 101.7Q790.5 101.5 790.3 101.4Q790.1 101.2 789.8 101.2Q789.4 101.2 789.2 101.4Q789 101.5 788.9 101.7Q788.7 101.9 788.7 102.2Q788.6 102.6 788.6 103V103.8Q788.6 104.2 788.7 104.5Q788.7 104.8 788.9 105.1Q789 105.3 789.2 105.4Q789.4 105.5 789.8 105.5ZM794.7 100.8V103.9Q794.7 104.3 794.8 104.6Q794.8 104.9 794.9 105.1Q795 105.3 795.2 105.4Q795.4 105.5 795.8 105.5Q796.1 105.5 796.3 105.4Q796.5 105.3 796.6 105.1Q796.7 104.9 796.7 104.6Q796.8 104.3 796.8 103.9V100.8H797.4V103.8Q797.4 104.3 797.3 104.8Q797.3 105.2 797.1 105.5Q796.9 105.8 796.6 105.9Q796.3 106.1 795.8 106.1Q795.2 106.1 794.9 105.9Q794.6 105.8 794.4 105.5Q794.2 105.2 794.2 104.8Q794.1 104.3 794.1 103.8V100.8ZM800.8 106H800.2V100.8H802.1Q802.8 100.8 803.2 101.2Q803.6 101.6 803.6 102.3Q803.6 102.9 803.2 103.3Q802.9 103.7 802.3 103.7L803.6 106H802.9L801.6 103.8H800.8ZM802.1 103.2Q802.5 103.2 802.7 103Q802.9 102.8 802.9 102.5V102.1Q802.9 101.7 802.7 101.5Q802.5 101.3 802.1 101.3H800.8V103.2ZM812.2 106V100.8H814.1Q814.8 100.8 815.2 101.2Q815.6 101.6 815.6 102.3Q815.6 103 815.2 103.4Q814.8 103.8 814.1 103.8H812.8V106ZM812.8 103.2H814.1Q814.5 103.2 814.7 103Q814.9 102.8 814.9 102.5V102.1Q814.9 101.7 814.7 101.5Q814.5 101.3 814.1 101.3H812.8ZM818.8 106H818.2V100.8H820.1Q820.8 100.8 821.2 101.2Q821.6 101.6 821.6 102.3Q821.6 102.9 821.2 103.3Q820.9 103.7 820.3 103.7L821.6 106H820.9L819.6 103.8H818.8ZM820.1 103.2Q820.5 103.2 820.7 103Q820.9 102.8 820.9 102.5V102.1Q820.9 101.7 820.7 101.5Q820.5 101.3 820.1 101.3H818.8V103.2ZM824.2 106V100.8H827.4V101.3H824.8V103.1H827.3V103.6H824.8V105.5H827.4V106ZM831.7 106.1Q831 106.1 830.6 105.8Q830.1 105.6 829.8 105.2L830.3 104.8Q830.6 105.2 830.9 105.4Q831.3 105.6 831.8 105.6Q832.3 105.6 832.6 105.3Q832.9 105 832.9 104.6Q832.9 104.2 832.7 104Q832.5 103.7 832 103.7L831.4 103.6Q831 103.5 830.7 103.4Q830.5 103.2 830.3 103Q830.2 102.8 830.1 102.6Q830 102.4 830 102.1Q830 101.4 830.5 101Q831 100.7 831.8 100.7Q832.4 100.7 832.8 100.9Q833.3 101.1 833.5 101.5L833.1 101.9Q832.9 101.6 832.6 101.4Q832.2 101.2 831.8 101.2Q831.2 101.2 830.9 101.4Q830.7 101.7 830.7 102.1Q830.7 102.5 830.9 102.7Q831.1 102.9 831.6 103L832.2 103.1Q832.6 103.2 832.8 103.3Q833.1 103.4 833.3 103.6Q833.4 103.8 833.5 104.1Q833.6 104.3 833.6 104.5Q833.6 105.3 833.1 105.7Q832.6 106.1 831.7 106.1ZM836.2 106V100.8H839.4V101.3H836.8V103.1H839.3V103.6H836.8V105.5H839.4V106ZM844.1 101.3V106H843.4V101.3H841.7V100.8H845.8V101.3ZM849.7 106.1Q849 106.1 848.6 105.8Q848.1 105.6 847.8 105.2L848.3 104.8Q848.6 105.2 848.9 105.4Q849.3 105.6 849.8 105.6Q850.3 105.6 850.6 105.3Q850.9 105 850.9 104.6Q850.9 104.2 850.7 104Q850.5 103.7 850 103.7L849.4 103.6Q849 103.5 848.7 103.4Q848.5 103.2 848.3 103Q848.2 102.8 848.1 102.6Q848 102.4 848 102.1Q848 101.4 848.5 101Q849 100.7 849.8 100.7Q850.4 100.7 850.8 100.9Q851.3 101.1 851.5 101.5L851.1 101.9Q850.9 101.6 850.6 101.4Q850.2 101.2 849.8 101.2Q849.2 101.2 848.9 101.4Q848.7 101.7 848.7 102.1Q848.7 102.5 848.9 102.7Q849.1 102.9 849.6 103L850.2 103.1Q850.6 103.2 850.8 103.3Q851.1 103.4 851.3 103.6Q851.4 103.8 851.5 104.1Q851.6 104.3 851.6 104.5Q851.6 105.3 851.1 105.7Q850.6 106.1 849.7 106.1Z"/>
<path d="M5 106h10M10 101v10" stroke="#63696F" stroke-width="1"/><path d="M865 106h10M870 101v10" stroke="#63696F" stroke-width="1"/>
</svg>
